
<svg xmlns="http://www.w3.org/2000/svg" version="1.1" xmlns:xlink="http://www.w3.org/1999/xlink" preserveAspectRatio="none" x="0px" y="0px" width="425px" height="186px" viewBox="0 0 425 186">
<defs>
<g id="Layer0_0_MEMBER_1_MEMBER_2_MEMBER_0_MEMBER_0_MEMBER_0_FILL">
<path fill="#FFFFFF" stroke="none" d="
M 337.8 140.4
L 337.8 129
Q 324.12265625 123.1224609375 308.5 124.4 300.2 125 292.25 127.95 278.55 133 268.6 143.6 258.75 154.05 254.55 167.8
L 254.25 168.3 254.1 168.25 254.1 135.95
Q 254.05 135 253.1 134.85 252.8 134.8 252.25 134.8
L 245.4 134.8
Q 244.1 134.8 243.75 135.15 243.4 135.5 243.4 136.8
L 243.35 235.45
Q 242.55 235.45 242.2 235.4 237 235.35 231.7 234.1 223.5 232.15 219.45 230.25 199.1 220.75 192.85 199.95 192.55 198.9 191.45 194.15 189.9 187.7 189.9 182.65
L 189.85 135.65 189.95 134.6 238.4 134.6
Q 239.1 134.6 239.45 134.55 240.55 134.5 240.6 133.45
L 240.65 125.75
Q 240.65 124.35 240.3 124 239.95 123.65 238.55 123.65
L 189.9 123.6 189.85 110.65
Q 189.8 109.75 188.85 109.55 188.55 109.5 187.95 109.5
L 180.85 109.5
Q 179.6 109.5 179.3 109.85 178.95 110.15 178.95 111.4
L 178.95 122.5 178.85 123.65 105.5 123.65
Q 99.45 123.75 94.1 124.8 87.2 126.25 82.75 129 80.45 130.5 79.5 131.4 76.7 134.15 74.55 137.3 65.15 150.85 68.95 166.8 71 175.35 77.85 182.45 80.25 184.95 81.45 185.75 90.35 191.65 100.7 191.65
L 149.35 191.65
Q 150.15 191.65 150.5 191.75
L 155.95 192.95
Q 156.65 193.15 157.05 193.35 160.3 194.9 162.75 196.85 168.65 201.7 170.05 208.85 170.8 212.45 170.05 216.85 170 217.1 169.9 218.3 169.8 219.2 169.65 219.7 168.35 224.15 165.75 227.5 161.5 232.9 153.85 234.85 150.1 235.8 144.25 235.8
L 68.95 235.8
Q 67.5 235.85 67.45 237.3
L 67.45 245.2
Q 67.65 246.2 68.65 246.35
L 143.4 246.35
Q 147.1 246.35 154.55 246.05 154.9 246.05 155.65 245.85 159.8 245.15 165.15 242.2 169.7 239.65 172.05 237.05 176.85 231.65 179.25 225.3 180.1 223.05 180.45 221.1 180.75 219.35 181 215.65
L 181 212.1
Q 181.1 209.55 180.1 204.55 179.15 199.9 175.65 195.05 170.05 187.2 162.05 183.75 155.65 181.05 149.4 181.1
L 98.6 181.05
Q 96.85 180.9 94.95 180.2 90.15 178.4 86.75 175.5 84.75 173.8 82.8 170.95 78.75 165 78.8 158.35 78.9 154.5 80 150.75 83.6 139 95.05 135.75 99.05 134.6 105.05 134.6 140.15 134.55 175.25 134.6
L 177.95 134.6 178.95 134.7 178.95 178.45
Q 178.95 187.15 180.55 195.15 183.15 208 189.65 218.1 193.3 223.75 196.45 226.9 200.55 230.9 205.1 234.2 220.9 245.45 241 246.3 244.7 246.4 252.05 246.4 253.45 246.4 253.8 246.05 254.1 245.75 254.1 244.35
L 254.1 204.15 254.2 203.3
Q 254.5 203.55 254.6 203.9
L 255.55 206.95
Q 257.55 212.6 258.8 214.85 271.7 237.2 296.2 244.5 302.85 246.5 308.55 246.7 317.2 246.95 324 245.9 332.2 244.7 337.95 242.2 349 237.55 355.7 231.6 361.25 226.6 363.8 222.75
L 364.05 222.4 364.25 222.5 364.3 223.2
Q 364.3 229.95 364.3 230.3 364.2 234.3 363.8 237.35 363.15 241.85 362.45 244.8 361.55 248.45 359.6 252.65 354.9 262.55 347.3 268.65 344.7 270.75 339.35 273.65 323.65 282.2 306.25 279.5 292.2 277.25 281.7 268.55
L 280.2 267.35
Q 278.05 265.75 275.8 263
L 273.75 260.4
Q 269.35 254.55 267.5 249.35
L 266.2 245.5
Q 266 244.9 265.85 244.8 265.7 244.65 265.05 244.65
L 256.2 244.65
Q 254.7 244.65 254.9 246.25 255.6 250.45 257.35 254.9 260.25 262 266 269.3 269.6 273.9 272.2 275.7
L 274.65 277.55
Q 283.45 283.95 292.45 287.15 300.8 290.1 308.2 290.3 311.2 290.4 320.1 290.3
L 323.65 290.05
Q 324.9 290 326.6 289.6 327.6 289.35 329.5 288.9 336.6 287.4 345 283 352.3 279.15 356.9 274.8 366.9 265.3 371.15 253.95 374.9 244.2 374.9 232.9
L 374.9 177.95 374.25 167.8
Q 374.1234375 167.8994140625 374 168 369.9466796875 171.212890625 363.05 171.25 364.8 179.3416015625 364.8 186.05 364.7 207.35 349.6 222.3 334.5 237.25 313.15 237.15 291.95 237 277.05 222 262.1 207 262.1 185.7 262.15 164.45 277.2 149.4 292.25 134.35 313.45 134.4 326.88671875 134.4626953125 337.8 140.4 Z"/>
</g>

<g id="Layer0_0_MEMBER_1_MEMBER_2_MEMBER_0_MEMBER_0_MEMBER_1_FILL">
<path fill="#FFFFFF" stroke="none" d="
M 190.05 17.25
L 182.55 17.25
Q 181.55 17.3 181.25 17.6 180.95 17.95 180.95 18.95
L 180.95 29.8
Q 181 30.55 181.25 30.85 181.55 31.15 182.3 31.2
L 189.75 31.2 190.8 31.1
Q 191.5 31.05 191.65 30.25
L 191.65 18.95
Q 191.65 17.95 191.35 17.6 191.05 17.3 190.05 17.25 Z"/>
</g>

<g id="Layer0_0_MEMBER_1_MEMBER_2_MEMBER_0_MEMBER_1_FILL">
<path fill="#51C0A6" stroke="none" d="
M 250.4 84.05
Q 251.2 83.4 251.65 83.3 252.05 83.25 252.7 83.65 253.1 83.85 253.55 84.3
L 278.55 109.3
Q 278.95 109.75 279.65 110.2 280.4 110.75 281.3 110.25 282.05 109.75 282.2 109.6
L 288.55 103.2
Q 290 101.75 289 100.4
L 253.5 64.8
Q 253.05 64.45 252.8 64.25 252.35 64 251.9 64 251.1 63.95 250 64.95
L 217.05 97.95
Q 214.75 100.15 214.2 101.15
L 214.2 101.95
Q 214.65 102.5 215.55 103.65
L 221.25 109.35
Q 221.75 109.85 222.3 110.2 223.15 110.75 224.05 110.2 224.75 109.7 225.15 109.3
L 250.4 84.05 Z"/>
</g>

<g id="Layer0_0_MEMBER_1_MEMBER_2_MEMBER_2_MEMBER_0_MEMBER_0_FILL">
<path fill="#4EBFA6" stroke="none" d="
M 376.55 137.4
Q 376.55 132.15 372.6 129.55 368.65 127 360.55 127
L 346.65 127 346.65 168.7 362.15 168.7
Q 369.15 168.7 373.25 165.45 377.3 162.15 377.3 156.5 377.3 152.65 375.65 150.3 374 147.9 370.3 146.85
L 370.3 146.55
Q 373.1 145.9 374.8 143.4 376.55 140.9 376.55 137.4
M 357.4 135.55
L 360.45 135.55
Q 365.5 135.55 365.5 139.05 365.5 141 364.25 142 363.05 143 360.65 143
L 357.4 143 357.4 135.55
M 357.4 160
L 357.4 151.25 360.95 151.25
Q 363.6 151.25 364.9 152.35 366.25 153.5 366.25 155.55 366.25 160 361.2 160
L 357.4 160 Z"/>
</g>

<g id="Layer0_0_MEMBER_1_MEMBER_2_MEMBER_2_MEMBER_0_MEMBER_1_FILL">
<path fill="#4EBFA6" stroke="none" d="
M 332.55 43.8
L 345.45 43.8 345.45 34.75 321.8 34.75 321.8 76.45 345.45 76.45 345.45 67.25 332.55 67.25 332.55 59.4 344.5 59.4 344.5 50.35 332.55 50.35 332.55 43.8 Z"/>
</g>

<g id="Layer0_0_MEMBER_1_MEMBER_2_MEMBER_2_MEMBER_0_MEMBER_2_FILL">
<path fill="#4EBFA6" stroke="none" d="
M 370 44
L 379.7 44 379.7 34.75 349.5 34.75 349.5 44 359.25 44 359.25 76.45 370 76.45 370 44 Z"/>
</g>

<g id="Layer0_0_MEMBER_1_MEMBER_2_MEMBER_2_MEMBER_0_MEMBER_3_FILL">
<path fill="#4EBFA6" stroke="none" d="
M 409.85 76.45
L 421.6 76.45 408.45 34.6 394.1 34.6 381.1 76.45 392.9 76.45 394.9 68.65 407.85 68.65 409.85 76.45
M 400.35 46.25
L 401.35 41.45
Q 401.5 42.5 402.45 46.65
L 405.65 59.4 397.15 59.4
Q 399.9 48.4 400.35 46.25 Z"/>
</g>

<g id="Layer0_0_MEMBER_1_MEMBER_2_MEMBER_2_MEMBER_1_MEMBER_0_FILL">
<path fill="#FFFFFF" stroke="none" d="
M 310.2 42.9
Q 310.2 37.55 306.25 35.05 302.3 32.5 294.2 32.5
L 280.3 32.5 280.3 74.15 295.8 74.15
Q 302.9 74.15 306.9 70.9 310.95 67.7 310.95 61.95 310.95 58.15 309.3 55.75 307.65 53.35 303.95 52.35
L 303.95 52.05
Q 306.7 51.4 308.45 48.85 310.2 46.35 310.2 42.9
M 294.3 48.5
L 291.05 48.5 291.05 41 294.1 41.05
Q 299.15 41.05 299.15 44.55 299.15 46.5 297.9 47.5 296.6 48.5 294.3 48.5
M 291.05 65.5
L 291.05 56.75 294.6 56.75
Q 297.25 56.75 298.55 57.85 299.9 59 299.9 61.05 299.9 65.5 294.85 65.5
L 291.05 65.5 Z"/>
</g>

<g id="Layer0_0_MEMBER_1_MEMBER_2_MEMBER_2_MEMBER_1_MEMBER_1_FILL">
<path fill="#FFFFFF" stroke="none" d="
M 340.6 48.1
L 328.65 48.1 328.65 41.55 341.55 41.55 341.55 32.5 317.9 32.5 317.9 74.15 341.55 74.15 341.55 65 328.65 65 328.65 57.15 340.6 57.15 340.6 48.1 Z"/>
</g>

<g id="Layer0_0_MEMBER_1_MEMBER_2_MEMBER_2_MEMBER_1_MEMBER_2_FILL">
<path fill="#FFFFFF" stroke="none" d="
M 366.1 41.7
L 375.8 41.7 375.8 32.5 345.6 32.5 345.6 41.7 355.35 41.7 355.35 74.15 366.1 74.15 366.1 41.7 Z"/>
</g>

<g id="Layer0_0_MEMBER_1_MEMBER_2_MEMBER_2_MEMBER_1_MEMBER_3_FILL">
<path fill="#FFFFFF" stroke="none" d="
M 405.95 74.15
L 417.7 74.15 404.55 32.35 390.2 32.35 377.2 74.15 389 74.15 391 66.35 403.95 66.35 405.95 74.15
M 396.45 44
L 397.45 39.2
Q 397.6 40.25 398.55 44.4
L 401.75 57.15 393.25 57.15
Q 395.95 46.4 396.45 44 Z"/>
</g>
</defs>

<g transform="matrix( 1, 0, 0, 1, -62.45,-107.5) ">
<use xlink:href="#Layer0_0_MEMBER_1_MEMBER_2_MEMBER_0_MEMBER_0_MEMBER_0_FILL"/>
</g>

<g transform="matrix( 1, 0, 0, 1, 0,-15.25) ">
<use xlink:href="#Layer0_0_MEMBER_1_MEMBER_2_MEMBER_0_MEMBER_0_MEMBER_1_FILL"/>
</g>

<g transform="matrix( 1, 0, 0, 1, 0,-15.25) ">
<use xlink:href="#Layer0_0_MEMBER_1_MEMBER_2_MEMBER_0_MEMBER_1_FILL"/>
</g>

<g transform="matrix( 1, 0, 0, 1, -62.45,-107.5) ">
<use xlink:href="#Layer0_0_MEMBER_1_MEMBER_2_MEMBER_2_MEMBER_0_MEMBER_0_FILL"/>
</g>

<g transform="matrix( 1, 0, 0, 1, 0,-15.25) ">
<use xlink:href="#Layer0_0_MEMBER_1_MEMBER_2_MEMBER_2_MEMBER_0_MEMBER_1_FILL"/>
</g>

<g transform="matrix( 1, 0, 0, 1, 0,-15.25) ">
<use xlink:href="#Layer0_0_MEMBER_1_MEMBER_2_MEMBER_2_MEMBER_0_MEMBER_2_FILL"/>
</g>

<g transform="matrix( 1, 0, 0, 1, 0,-15.25) ">
<use xlink:href="#Layer0_0_MEMBER_1_MEMBER_2_MEMBER_2_MEMBER_0_MEMBER_3_FILL"/>
</g>

<g transform="matrix( 1, 0, 0, 1, 0,-15.25) ">
<use xlink:href="#Layer0_0_MEMBER_1_MEMBER_2_MEMBER_2_MEMBER_1_MEMBER_0_FILL"/>
</g>

<g transform="matrix( 1, 0, 0, 1, 0,-15.25) ">
<use xlink:href="#Layer0_0_MEMBER_1_MEMBER_2_MEMBER_2_MEMBER_1_MEMBER_1_FILL"/>
</g>

<g transform="matrix( 1, 0, 0, 1, 0,-15.25) ">
<use xlink:href="#Layer0_0_MEMBER_1_MEMBER_2_MEMBER_2_MEMBER_1_MEMBER_2_FILL"/>
</g>

<g transform="matrix( 1, 0, 0, 1, 0,-15.25) ">
<use xlink:href="#Layer0_0_MEMBER_1_MEMBER_2_MEMBER_2_MEMBER_1_MEMBER_3_FILL"/>
</g>
</svg>
